<svg xmlns="http://www.w3.org/2000/svg" xmlns:svg="http://www.w3.org/2000/svg" id="svg232" enable-background="new 0 0 64 64" version="1.1" viewBox="0 0 64 64" xml:space="preserve"><metadata id="metadata238"/><g id="row_1" transform="matrix(0.66225166,0,0,0.66225166,10.807947,10.875497)"><g id="protection"><path id="path222" fill="#ffca28" d="M 55.7,9.3 C 50.4,4.2 43.1,2 32,2 20.9,2 13.6,4.2 8.3,9.3 L 8,9.6 V 30.2 32 c 0,13.7 9.5,25.9 23.7,30.3 l 0.3,0.1 0.3,-0.1 C 46.5,57.9 56,45.7 56,32 V 9.6 Z"/><path id="path224" fill="#ffecb3" d="M 49.8,12.5 C 45.9,9.5 40.2,8.2 32,8.2 V 56 l 0.2,-0.1 C 43,51.9 50,42.5 50,32 V 12.6 Z"/><path id="path226" fill="#fff8e1" d="M 14.2,12.5 14,12.6 V 32 c 0,10.5 7,19.9 17.8,23.9 L 32,56 V 8.2 c -8.2,0 -13.9,1.3 -17.8,4.3 z"/><polygon id="polygon228" fill="#4caf50" points="23.6 26.8 31.5 37.9 40.2 17.2 43.8 18.8 33.8 42.8 30.4 43.2 20.4 29.2"/></g></g></svg>